<?xml version="1.0" encoding="UTF-8"?>
<svg id="Layer_1" xmlns="http://www.w3.org/2000/svg" version="1.1" viewBox="0 0 576 512">
  <!-- Generator: Adobe Illustrator 30.0.0, SVG Export Plug-In . SVG Version: 2.1.1 Build 123)  -->
  <defs>
    <style>
      .st0 {
        fill: #21c3ff;
      }

      .st1 {
        fill: #00a6d3;
      }
    </style>
  </defs>
  <g>
    <path class="st0" d="M575.74,189.87v-59.32c0-71.44-57.92-129.36-129.36-129.36H129.96C58.51,1.19.6,59.11.6,130.55v251.4c0,15.58,2.75,30.51,7.8,44.34,74.14-74.98,279.7-250.54,567.35-236.43Z"/>
    <path class="st1" d="M8.4,426.3c18.1,49.61,65.69,85.02,121.56,85.02h316.43c71.44,0,129.36-57.92,129.36-129.36v-192.09C288.09,175.75,82.54,351.32,8.4,426.3Z"/>
  </g>
  <path d="M482.64,358.94c1.84,5.97-1.52,12.3-7.51,13.5l-10.85,3.33c-6,1.84-12.35-1.51-14.2-7.49l-17-54.31-56.41-22.48,37.81,43.94c3.59,4.17,4.93,9.82,3.59,15.16l-19.96,77.84c-1.52,6.06-7.69,9.74-13.77,8.23l-11.02-2.74c-6.09-1.51-9.79-7.66-8.27-13.72l17.82-69.3-27.23-31.65c.11,1.56.47,3.05.47,4.63,0,37.49-30.51,67.88-68.14,67.88s-68.14-30.41-68.14-67.89c0-1.59.36-3.07.47-4.63l-27.23,31.65,17.82,69.3c1.52,6.06-2.18,12.2-8.27,13.72l-11.02,2.74c-6.08,1.51-12.25-2.17-13.77-8.23l-19.96-77.84c-1.34-5.33,0-10.98,3.59-15.16l37.81-43.94-56.41,22.48-16.98,54.97c-1.84,5.97-8.2,9.33-14.2,7.49l-10.85-3.33c-5.99-1.84-9.35-8.17-7.52-13.5l19.37-62.71c1.52-4.91,5.18-8.87,9.96-10.78l74.05-30.1-74.03-29.5c-4.79-1.89-8.44-6.48-9.96-10.73l-19.37-62.71c-1.84-5.97,1.52-12.3,7.51-13.5l10.85-3.33c6-1.84,12.35,1.51,14.2,7.49l16.98,54.97,56.41,22.48-37.81-44.63c-3.61-4.17-4.95-9.83-3.61-15.13l19.96-77.84c1.52-6.06,7.69-9.74,13.77-8.23l11.02,2.74c6.09,1.53,9.77,7.67,7.65,13.74l-17.18,69.32,38.11,44.26.11-17.28c-1.24-25.85,14.88-48.21,37.86-56.23,3.63-1.27,7.42,1.57,7.42,5.4v16.92h22.71v-16.91c0-3.85,3.81-6.68,7.46-5.4,22.15,7.74,37.99,28.67,37.99,53.35,0,.98-.13,1.9-.18,2.87l.18,17.28,38.12-44.3-17.82-69.3c-1.52-6.06,2.18-12.2,8.27-13.72l11.02-2.74c6.08-1.51,12.25,2.17,13.77,8.23l19.96,77.84c1.34,5.33,0,10.98-3.59,15.16l-37.81,43.94,56.41-22.48,16.98-54.97c1.84-5.97,8.2-9.33,14.2-7.49l10.85,3.33c5.99,1.84,9.35,8.17,7.52,13.5l-19.37,62.71c-1.52,4.91-5.18,8.87-9.96,10.78l-74.03,30.13,74.03,29.5c4.78,1.9,8.43,5.86,9.95,10.75l19.39,62.69Z"/>
</svg>